<?xml version="1.0" encoding="UTF-8"?>
<!DOCTYPE svg PUBLIC "-//W3C//DTD SVG 1.1//EN" "http://www.w3.org/Graphics/SVG/1.1/DTD/svg11.dtd">
<svg version="1.1" xmlns="http://www.w3.org/2000/svg" xmlns:xlink="http://www.w3.org/1999/xlink" x="0" y="0" width="2117.702" height="377.493" viewBox="0, 0, 2117.702, 377.493">
  <g id="Layer_3" transform="translate(-417.314, -198.739)">
    <path d="M637.854,274.634 C640.516,274.5 642.782,276.549 642.916,279.211 L646.077,342.018 C650.058,339.907 654.124,337.963 658.218,336.083 C672.273,329.741 684.173,326.349 693.618,326.281 L693.618,326.281 C704.796,326.201 712.836,330.873 716.253,340.354 C720.957,353.407 709.962,371.154 687.321,393.738 C680.59,400.452 672.918,407.467 664.479,414.694 C656.464,421.661 648.087,428.188 639.757,434.767 C645.36,432.834 651.012,431.046 656.671,429.283 C675.928,423.382 691.667,419.816 702.876,419.232 L705.438,419.149 C710.135,419.116 714.924,419.591 719.036,422.013 C723.977,425.131 725.428,430.527 723.354,436.838 C718.283,452.266 702.735,466.484 679.982,479.719 C670.456,485.26 660.279,490.251 650.105,494.622 C646.545,496.152 643.238,497.496 640.265,498.644 C639.22,499.047 638.29,499.398 637.486,499.695 C636.996,499.875 636.653,499.999 636.466,500.065 C633.953,500.954 631.197,499.637 630.308,497.125 C629.42,494.613 630.736,491.856 633.249,490.968 C633.28,490.956 633.353,490.931 633.464,490.89 C633.656,490.821 633.883,490.738 634.147,490.641 C634.906,490.361 635.79,490.028 636.788,489.642 C639.653,488.536 642.85,487.237 646.296,485.756 C656.137,481.529 665.974,476.704 675.13,471.378 C695.996,459.24 710.06,446.379 714.186,433.825 C714.968,431.445 714.778,430.736 713.886,430.173 C712.223,429.124 708.601,428.597 703.378,428.869 C693.158,429.401 678.053,432.823 659.498,438.509 C653.56,440.329 647.36,442.353 640.966,444.546 C631.338,447.829 621.804,451.379 612.302,455.01 C612.047,455.151 612.179,455.103 611.907,455.16 L611.049,455.488 C607.676,456.794 604.607,458.006 601.902,459.093 C600.957,459.473 600.125,459.81 599.415,460.1 C599.167,460.201 598.953,460.289 598.772,460.363 C598.665,460.407 598.592,460.437 598.559,460.451 C596.097,461.469 593.275,460.299 592.256,457.836 C591.238,455.374 592.408,452.552 594.871,451.534 C594.914,451.516 594.99,451.484 595.104,451.438 C595.292,451.36 595.514,451.269 595.769,451.165 C596.495,450.869 597.343,450.526 598.304,450.139 C601.046,449.038 604.153,447.811 607.565,446.49 L608.046,446.306 C608.274,446.146 608.098,446.27 608.576,445.933 C609.501,445.28 610.577,444.515 611.789,443.645 C615.259,441.154 619.128,438.323 623.296,435.203 C635.201,426.292 647.105,416.868 658.202,407.365 C666.467,400.287 673.963,393.433 680.506,386.906 C700.343,367.12 710.016,351.507 707.175,343.625 C705.266,338.329 701.048,335.878 693.687,335.93 C685.839,335.987 675.125,339.041 662.187,344.879 C656.879,347.242 651.728,349.93 646.613,352.679 L649.34,406.86 C649.474,409.522 647.425,411.788 644.764,411.922 C642.102,412.056 639.836,410.007 639.702,407.345 L637.219,357.998 C615.532,370.686 595.206,385.536 575.486,401.064 C573.402,402.724 570.367,402.38 568.706,400.296 C567.046,398.211 567.391,395.176 569.475,393.516 C590.878,376.731 612.917,360.505 636.674,347.165 L633.278,279.696 C633.144,277.034 635.193,274.768 637.854,274.634 z" fill="#FFFFFF"/>
    <path d="M1921.738,216.28 C1934.959,216.28 1945.676,226.997 1945.676,240.218 L1945.676,534.753 C1945.676,547.973 1934.959,558.691 1921.738,558.691 L1627.203,558.691 C1613.983,558.691 1603.266,547.973 1603.266,534.753 L1603.265,240.218 C1603.266,226.997 1613.983,216.28 1627.203,216.28 L1921.738,216.28 z M1768.158,242.415 L1767.122,242.482 L1767.027,242.481 C1766.904,242.481 1766.781,242.485 1766.647,242.494 C1766.21,242.522 1765.769,242.601 1765.302,242.762 C1763.011,243.553 1761.888,245.206 1761.168,247.365 C1761.06,247.688 1760.969,248.008 1760.881,248.353 C1760.849,248.477 1760.819,248.598 1760.787,248.736 C1760.77,248.804 1760.749,248.896 1760.72,249.018 C1760.067,251.783 1759.804,254.51 1759.696,258.327 C1759.678,258.938 1759.668,259.416 1759.646,260.503 C1759.618,261.889 1759.604,262.505 1759.577,263.255 L1759.574,263.383 C1759.562,265.158 1759.548,266.905 1759.53,268.878 C1759.394,283.854 1759.39,285.18 1759.541,290.059 C1759.731,296.233 1760.211,302.392 1761.303,312.773 C1762.5,325.234 1763.251,337.729 1763.741,350.237 C1753.798,355.222 1744.306,361.037 1734.751,366.711 C1734.708,366.737 1734.708,366.737 1734.664,366.763 C1725.306,372.366 1715.952,378.001 1706.217,382.932 C1702.009,384.849 1697.801,386.763 1693.604,388.703 C1689.463,390.638 1686.619,392.072 1684.404,393.382 C1681.49,395.105 1679.577,396.651 1678.443,398.522 C1676.62,401.529 1677.218,404.88 1679.787,407.307 C1681.724,409.136 1684.85,410.603 1689.724,412.196 C1695.826,414.191 1701.855,414.289 1709.227,411.635 C1718.255,408.385 1728.544,401.071 1740.661,388.788 C1748.025,381.766 1755.847,375.199 1764.535,369.856 C1764.692,373.536 1764.853,377.217 1765.119,380.892 C1766.056,392.389 1765.506,398.212 1764.105,399.953 C1763.568,400.622 1762.036,400.705 1756.525,399.737 C1749.26,398.462 1744.633,397.775 1741.93,397.579 C1739.959,397.436 1738.763,397.479 1737.521,398.007 C1735.43,398.896 1734,401.151 1734.772,403.747 C1735.144,404.996 1735.784,405.728 1736.674,406.435 C1737.849,407.368 1739.541,408.226 1743.494,410.051 C1743.82,410.201 1747.141,411.724 1748.192,412.212 C1750.119,413.105 1751.748,413.88 1753.298,414.645 C1756.859,416.432 1760.423,418.266 1763.652,420.616 C1766.501,423.34 1767.356,427.188 1767.968,430.957 C1768.073,431.576 1768.118,431.852 1768.345,433.291 C1768.581,434.759 1768.481,434.17 1768.636,435.06 C1763.515,440.22 1758.349,445.334 1753.14,450.404 L1753.13,450.414 C1746.857,456.551 1744.07,459.294 1740.613,462.755 C1739.691,463.679 1738.465,464.336 1736.806,464.828 C1735.651,465.17 1735.471,465.205 1732.239,465.763 C1730.314,466.095 1729.217,466.355 1728.074,466.857 C1725.907,467.81 1724.338,469.505 1723.996,471.978 C1723.059,478.749 1723.483,483.834 1725.532,487.49 C1727.849,491.621 1731.939,493.466 1736.982,493.16 C1744.035,492.732 1753.341,488.341 1767.66,479.517 C1782.083,470.628 1806.225,461.765 1823.009,459.18 C1827.146,458.543 1830.657,458.318 1833.347,458.514 C1834.608,458.605 1835.647,458.787 1836.437,459.039 C1836.824,459.176 1837.237,459.302 1837.556,459.573 C1837.579,459.964 1837.463,460.346 1837.35,460.716 C1836.712,462.692 1834.853,465.53 1831.693,469.077 C1808.41,495.205 1804.165,498.906 1781.083,512.956 C1774.707,516.837 1771.03,519.648 1769.578,522.014 C1767.788,524.929 1768.545,528.658 1772.077,530.013 C1773.607,530.6 1775.298,530.591 1777.501,530.249 C1784.269,529.198 1797.036,524.408 1809.742,518.055 C1815.377,515.238 1820.954,512.065 1826.774,508.431 C1831.827,505.276 1835.234,502.996 1843.493,497.346 C1850.222,492.741 1853.199,490.782 1856.229,489.052 C1868.65,481.96 1874.952,465.434 1867.78,454.078 C1858.138,438.812 1847.764,435.585 1831.425,440.672 C1819.913,444.256 1811.048,446.696 1799.209,449.653 C1798.408,449.853 1797.574,450.061 1796.667,450.286 C1795.248,450.638 1790.312,451.856 1789.594,452.034 C1786.722,452.744 1784.412,453.321 1782.086,453.909 C1776.944,455.223 1771.803,456.542 1766.688,457.954 C1769.695,455.403 1772.715,452.866 1775.655,450.239 C1781.255,445.137 1786.999,440.597 1802.975,428.371 C1803.273,428.143 1803.273,428.143 1803.571,427.914 C1822.337,413.551 1830.458,406.904 1835.88,400.804 C1847.683,387.525 1852.094,381.885 1855.128,374.966 C1859.363,365.31 1857.898,356.56 1849.974,348.637 C1841.989,340.86 1834.744,336.208 1826.159,334.399 C1824.042,333.953 1821.887,333.674 1819.688,333.552 C1808.337,333.111 1797.666,336.285 1787.134,340.264 L1787.132,339.471 C1787.131,338.482 1787.132,337.689 1787.133,335.905 C1787.133,335.558 1787.133,335.558 1787.133,335.212 C1787.209,298.378 1786.741,286.296 1783.961,276.183 C1781.974,269.012 1780.393,263.797 1778.593,258.704 C1778.524,258.508 1777.901,256.69 1777.661,256.013 C1777.176,254.639 1776.714,253.418 1776.221,252.24 C1774.221,247.453 1772.237,244.348 1769.219,242.917 L1768.158,242.415 z M1817.825,349.398 L1817.825,349.398 L1817.825,349.398 C1820.444,349.537 1823.528,349.685 1825.588,351.56 C1828.146,353.89 1827.321,357.789 1826.637,360.723 C1824.276,369.929 1815.802,383.248 1802.631,398.301 C1798.502,402.992 1794.367,407.68 1790.161,412.302 C1789.865,405.323 1790.026,408.786 1789.677,401.913 C1789.473,398.135 1789.275,394.843 1788.879,388.493 C1788.859,388.178 1788.859,388.178 1788.84,387.863 C1788.211,377.722 1787.561,367.579 1787.349,357.419 C1797.015,353.082 1807.159,349.638 1817.825,349.398 L1817.825,349.398 z" fill="#FFFFFF"/>
    <path d="M500.421,223.647 L792.505,223.647 C803.551,223.647 812.505,232.602 812.505,243.647 L812.505,535.732 C812.505,546.777 803.551,555.732 792.505,555.732 L500.421,555.732 C489.375,555.732 480.421,546.777 480.421,535.732 L480.421,243.647 C480.421,232.602 489.375,223.647 500.421,223.647 z" fill-opacity="0" stroke="#FFFFFF" stroke-width="10"/>
    <path d="M710.092,494.382 L710.092,512.567 L728.277,512.567 L781.909,458.935 L763.724,440.75 L710.092,494.382 z M795.972,444.872 C797.863,442.981 797.863,439.926 795.972,438.034 L784.625,426.687 C782.733,424.796 779.678,424.796 777.787,426.687 L768.913,435.561 L787.098,453.746 L795.972,444.872 z" fill="#FFFFFF"/>
    <path d="M1060.403,221.943 L1352.487,221.943 C1363.533,221.943 1372.487,230.897 1372.487,241.943 L1372.487,534.028 C1372.487,545.073 1363.533,554.028 1352.487,554.028 L1060.403,554.028 C1049.357,554.028 1040.403,545.073 1040.403,534.028 L1040.403,241.943 C1040.403,230.897 1049.357,221.943 1060.403,221.943 z" fill-opacity="0" stroke="#FFFFFF" stroke-width="10"/>
    <path d="M1117.708,465.939 L1295.182,465.939 C1312.146,465.939 1325.899,479.692 1325.899,496.656 L1325.899,496.656 C1325.899,513.621 1312.146,527.373 1295.182,527.373 L1117.708,527.373 C1100.743,527.373 1086.991,513.621 1086.991,496.656 L1086.991,496.656 C1086.991,479.692 1100.743,465.939 1117.708,465.939 z" fill-opacity="0" stroke="#FFFFFF" stroke-width="5"/>
    <path d="M1136.645,480.04 L1150.595,480.04 Q1154.095,480.04 1157.345,481.115 Q1160.595,482.19 1163.095,484.39 Q1165.595,486.59 1167.095,489.915 Q1168.595,493.24 1168.595,497.74 Q1168.595,502.29 1166.87,505.615 Q1165.145,508.94 1162.42,511.115 Q1159.695,513.29 1156.37,514.365 Q1153.045,515.44 1149.845,515.44 L1136.645,515.44 z M1147.645,509.74 Q1150.595,509.74 1153.22,509.065 Q1155.845,508.39 1157.795,506.965 Q1159.745,505.54 1160.87,503.265 Q1161.995,500.99 1161.995,497.74 Q1161.995,494.54 1160.995,492.24 Q1159.995,489.94 1158.22,488.515 Q1156.445,487.09 1154.02,486.415 Q1151.595,485.74 1148.695,485.74 L1142.945,485.74 L1142.945,509.74 z" fill="#FFFFFF"/>
    <path d="M1172.695,497.89 Q1172.695,493.64 1174.095,490.165 Q1175.495,486.69 1177.97,484.24 Q1180.445,481.79 1183.87,480.465 Q1187.295,479.14 1191.395,479.14 Q1195.545,479.09 1198.995,480.365 Q1202.445,481.64 1204.945,484.09 Q1207.445,486.54 1208.845,489.99 Q1210.245,493.44 1210.245,497.69 Q1210.245,501.84 1208.845,505.24 Q1207.445,508.64 1204.945,511.09 Q1202.445,513.54 1198.995,514.915 Q1195.545,516.29 1191.395,516.34 Q1187.295,516.34 1183.87,515.015 Q1180.445,513.69 1177.97,511.265 Q1175.495,508.84 1174.095,505.44 Q1172.695,502.04 1172.695,497.89 z M1179.295,497.49 Q1179.295,500.34 1180.17,502.74 Q1181.045,505.14 1182.645,506.89 Q1184.245,508.64 1186.47,509.64 Q1188.695,510.64 1191.445,510.64 Q1194.195,510.64 1196.445,509.64 Q1198.695,508.64 1200.295,506.89 Q1201.895,505.14 1202.77,502.74 Q1203.645,500.34 1203.645,497.49 Q1203.645,494.84 1202.77,492.54 Q1201.895,490.24 1200.295,488.515 Q1198.695,486.79 1196.445,485.815 Q1194.195,484.84 1191.445,484.84 Q1188.695,484.84 1186.47,485.815 Q1184.245,486.79 1182.645,488.515 Q1181.045,490.24 1180.17,492.54 Q1179.295,494.84 1179.295,497.49 z" fill="#FFFFFF"/>
    <path d="M1216.245,480.04 L1224.595,480.04 L1241.745,506.34 L1241.845,506.34 L1241.845,480.04 L1248.145,480.04 L1248.145,515.44 L1240.145,515.44 L1222.645,488.29 L1222.545,488.29 L1222.545,515.44 L1216.245,515.44 z" fill="#FFFFFF"/>
    <path d="M1256.045,480.04 L1279.495,480.04 L1279.495,485.74 L1262.345,485.74 L1262.345,494.44 L1278.595,494.44 L1278.595,500.14 L1262.345,500.14 L1262.345,509.74 L1280.395,509.74 L1280.395,515.44 L1256.045,515.44 z" fill="#FFFFFF"/>
    <path d="M2301.836,337.128 L2391.25,337.128 C2394.632,337.128 2397.373,339.869 2397.373,343.25 L2397.373,432.664 C2397.373,436.045 2394.632,438.786 2391.25,438.786 L2301.836,438.786 C2298.455,438.786 2295.714,436.045 2295.714,432.664 L2295.714,343.25 C2295.714,339.869 2298.455,337.128 2301.836,337.128 z" fill-opacity="0" stroke="#FFFFFF" stroke-width="10"/>
    <path d="M2418.98,337.128 L2508.394,337.128 C2511.775,337.128 2514.516,339.869 2514.516,343.25 L2514.516,432.664 C2514.516,436.045 2511.775,438.786 2508.394,438.786 L2418.98,438.786 C2415.599,438.786 2412.857,436.045 2412.857,432.664 L2412.857,343.25 C2412.857,339.869 2415.599,337.128 2418.98,337.128 z" fill-opacity="0" stroke="#FFFFFF" stroke-width="10"/>
    <path d="M2184.579,337.128 L2273.993,337.128 C2277.374,337.128 2280.115,339.869 2280.115,343.25 L2280.115,432.664 C2280.115,436.045 2277.374,438.786 2273.993,438.786 L2184.579,438.786 C2181.198,438.786 2178.457,436.045 2178.457,432.664 L2178.457,343.25 C2178.457,339.869 2181.198,337.128 2184.579,337.128 z" fill-opacity="0" stroke="#FFFFFF" stroke-width="10"/>
    <path d="M2301.836,454.073 L2391.25,454.073 C2394.632,454.073 2397.373,456.814 2397.373,460.195 L2397.373,549.609 C2397.373,552.991 2394.632,555.732 2391.25,555.732 L2301.836,555.732 C2298.455,555.732 2295.714,552.991 2295.714,549.609 L2295.714,460.195 C2295.714,456.814 2298.455,454.073 2301.836,454.073 z" fill-opacity="0" stroke="#FFFFFF" stroke-width="10"/>
    <path d="M2418.98,454.073 L2508.394,454.073 C2511.775,454.073 2514.516,456.814 2514.516,460.195 L2514.516,549.609 C2514.516,552.991 2511.775,555.732 2508.394,555.732 L2418.98,555.732 C2415.599,555.732 2412.857,552.991 2412.857,549.609 L2412.857,460.195 C2412.857,456.814 2415.599,454.073 2418.98,454.073 z" fill-opacity="0" stroke="#FFFFFF" stroke-width="10"/>
    <path d="M2184.579,454.073 L2273.993,454.073 C2277.374,454.073 2280.115,456.814 2280.115,460.195 L2280.115,549.609 C2280.115,552.991 2277.374,555.732 2273.993,555.732 L2184.579,555.732 C2181.198,555.732 2178.457,552.991 2178.457,549.609 L2178.457,460.195 C2178.457,456.814 2181.198,454.073 2184.579,454.073 z" fill-opacity="0" stroke="#FFFFFF" stroke-width="10"/>
    <path d="M2301.836,220.239 L2391.25,220.239 C2394.632,220.239 2397.373,222.98 2397.373,226.361 L2397.373,315.775 C2397.373,319.157 2394.632,321.898 2391.25,321.898 L2301.836,321.898 C2298.455,321.898 2295.714,319.157 2295.714,315.775 L2295.714,226.361 C2295.714,222.98 2298.455,220.239 2301.836,220.239 z" fill-opacity="0" stroke="#FFFFFF" stroke-width="10"/>
    <path d="M2418.98,220.239 L2508.394,220.239 C2511.775,220.239 2514.516,222.98 2514.516,226.361 L2514.516,315.775 C2514.516,319.157 2511.775,321.898 2508.394,321.898 L2418.98,321.898 C2415.599,321.898 2412.857,319.157 2412.857,315.775 L2412.857,226.361 C2412.857,222.98 2415.599,220.239 2418.98,220.239 z" fill-opacity="0" stroke="#FFFFFF" stroke-width="10"/>
    <path d="M2184.579,220.239 L2273.993,220.239 C2277.374,220.239 2280.115,222.98 2280.115,226.361 L2280.115,315.775 C2280.115,319.157 2277.374,321.898 2273.993,321.898 L2184.579,321.898 C2181.198,321.898 2178.457,319.157 2178.457,315.775 L2178.457,226.361 C2178.457,222.98 2181.198,220.239 2184.579,220.239 z" fill-opacity="0" stroke="#FFFFFF" stroke-width="10"/>
    <g>
      <path d="M2206.101,283.753 C2206.101,286.356 2208.22,288.476 2210.849,288.476 C2213.479,288.476 2215.611,286.356 2215.611,283.753 L2215.611,264.104 L2243.384,291.851 C2245.215,293.721 2248.237,293.721 2250.068,291.851 C2251.939,290.006 2251.939,286.997 2250.068,285.14 L2222.322,257.38 L2241.971,257.38 C2244.574,257.38 2246.706,255.261 2246.706,252.632 C2246.706,250.028 2244.574,247.883 2241.971,247.883 L2210.875,247.909 C2209.646,247.909 2208.455,248.367 2207.5,249.283 C2206.585,250.199 2206.127,251.428 2206.127,252.632 L2206.101,283.753 z" fill="#FFFFFF"/>
    </g>
    <path d="M427.464,241.239 L420.814,247.389 L417.314,243.239 L428.014,234.339 L433.464,234.339 L433.464,269.739 L427.464,269.739 z" fill="#FFFFFF"/>
    <path d="M979.35,263.389 L993.1,250.089 Q993.7,249.489 994.35,248.814 Q995,248.139 995.525,247.389 Q996.05,246.639 996.4,245.814 Q996.75,244.989 996.75,244.089 Q996.75,242.989 996.325,242.139 Q995.9,241.289 995.2,240.689 Q994.5,240.089 993.575,239.764 Q992.65,239.439 991.6,239.439 Q989.35,239.439 987.9,240.739 Q986.45,242.039 986.15,244.239 L979.85,243.739 Q980.05,241.289 981.025,239.414 Q982,237.539 983.55,236.289 Q985.1,235.039 987.15,234.389 Q989.2,233.739 991.6,233.739 Q994,233.739 996.075,234.364 Q998.15,234.989 999.7,236.214 Q1001.25,237.439 1002.15,239.339 Q1003.05,241.239 1003.05,243.789 Q1003.05,247.139 1001.525,249.564 Q1000,251.989 997.6,254.189 L986.65,264.339 L1003.05,264.339 L1003.05,269.739 L979.35,269.739 z" fill="#FFFFFF"/>
    <path d="M1552.5,250.293 L1554.05,250.293 Q1555.35,250.293 1556.575,250.143 Q1557.8,249.993 1558.775,249.493 Q1559.75,248.993 1560.35,248.043 Q1560.95,247.093 1560.95,245.493 Q1560.95,243.443 1559.55,242.143 Q1558.15,240.843 1555.9,240.843 Q1554.1,240.843 1552.675,241.868 Q1551.25,242.893 1550.6,244.743 L1544.25,243.043 Q1544.85,241.093 1545.95,239.643 Q1547.05,238.193 1548.55,237.268 Q1550.05,236.343 1551.85,235.893 Q1553.65,235.443 1555.6,235.443 Q1557.9,235.443 1559.95,236.043 Q1562,236.643 1563.55,237.818 Q1565.1,238.993 1566.025,240.768 Q1566.95,242.543 1566.95,244.893 Q1566.95,247.743 1565.35,249.968 Q1563.75,252.193 1560.9,252.893 L1560.9,252.993 Q1564.3,253.493 1566.05,255.893 Q1567.8,258.293 1567.8,261.593 Q1567.8,264.143 1566.825,266.093 Q1565.85,268.043 1564.2,269.368 Q1562.55,270.693 1560.375,271.368 Q1558.2,272.043 1555.85,272.043 Q1553.65,272.043 1551.7,271.568 Q1549.75,271.093 1548.175,270.093 Q1546.6,269.093 1545.45,267.518 Q1544.3,265.943 1543.7,263.743 L1550.1,262.043 Q1550.65,264.243 1552.05,265.443 Q1553.45,266.643 1555.85,266.643 Q1557.05,266.643 1558.125,266.243 Q1559.2,265.843 1560.025,265.118 Q1560.85,264.393 1561.325,263.368 Q1561.8,262.343 1561.8,261.093 Q1561.8,259.393 1561.075,258.318 Q1560.35,257.243 1559.225,256.668 Q1558.1,256.093 1556.7,255.893 Q1555.3,255.693 1553.95,255.693 L1552.5,255.693 z" fill="#FFFFFF"/>
    <path d="M2123.66,259.08 L2108.61,259.08 L2108.61,253.13 L2122.86,230.88 L2129.66,230.88 L2129.66,253.68 L2134.81,253.68 L2134.81,259.08 L2129.66,259.08 L2129.66,266.28 L2123.66,266.28 z M2123.66,239.38 L2123.56,239.38 L2114.71,253.68 L2123.66,253.68 z" fill="#FFFFFF"/>
    <g>
      <path d="M2485.872,491.218 C2485.872,488.614 2483.753,486.495 2481.123,486.495 C2478.494,486.495 2476.362,488.614 2476.362,491.218 L2476.362,510.866 L2448.589,483.12 C2446.758,481.249 2443.736,481.249 2441.905,483.12 C2440.034,484.965 2440.034,487.973 2441.905,489.831 L2469.651,517.59 L2450.002,517.59 C2447.399,517.59 2445.267,519.71 2445.267,522.339 C2445.267,524.942 2447.399,527.088 2450.002,527.088 L2481.097,527.061 C2482.327,527.061 2483.517,526.604 2484.472,525.688 C2485.388,524.772 2485.846,523.542 2485.846,522.339 L2485.872,491.218 z" fill="#FFFFFF"/>
    </g>
    <path d="M1248.645,438.786 L1228.702,414.805" fill-opacity="0" stroke="#FFFFFF" stroke-width="10"/>
    <path d="M1269.008,438.786 L1269.461,405.862" fill-opacity="0" stroke="#FFFFFF" stroke-width="10"/>
    <path d="M1287.4,438.786 L1310.121,416.065" fill-opacity="0" stroke="#FFFFFF" stroke-width="10"/>
  </g>
</svg>
