<?xml version="1.0" encoding="UTF-8"?>
<!DOCTYPE svg PUBLIC "-//W3C//DTD SVG 1.1//EN" "http://www.w3.org/Graphics/SVG/1.1/DTD/svg11.dtd">
<svg version="1.1" xmlns="http://www.w3.org/2000/svg" xmlns:xlink="http://www.w3.org/1999/xlink" x="0" y="0" width="417.913" height="402.335" viewBox="0, 0, 417.913, 402.335">
  <g id="Layer_3" transform="translate(-2592.179, -124.538)">
    <g>
      <path d="M2832.246,518.898 L2832.246,526.873 L2830.651,526.873 L2830.651,518.898 L2832.246,518.898 z" fill="#FFFFFF"/>
      <path d="M2821.878,476.63 C2829.499,485.422 2831.354,505.992 2832.246,517.303 L2830.651,517.303 C2829.414,507.516 2827.451,498.14 2825.04,488.592 C2824.09,484.831 2821.205,480.472 2821.878,476.63 z" fill="#FFFFFF"/>
      <path d="M2864.146,372.953 C2867.019,376.793 2868.003,382.128 2869.973,386.511 C2877.369,402.965 2882.959,424.327 2894.452,438.349 L2894.452,431.969 C2897.079,435.815 2896.207,441.795 2897.642,446.324 L2899.237,446.324 C2905.931,431.896 2898.091,410.581 2895.25,395.284 C2898.923,396.071 2898.118,403.133 2898.617,406.449 C2900.315,417.734 2904.022,428.423 2904.022,439.944 C2915.384,427.98 2924.17,412.906 2939.91,405.984 C2947.341,402.716 2954.484,403.379 2962.241,402.284 C2966.49,401.684 2984.372,397.81 2985.368,402.461 C2962.353,401.097 2933.682,403.841 2919.595,424.656 C2918.149,426.792 2918.738,429.607 2917.58,431.969 C2920.57,433.995 2915.1,434.355 2913.592,434.362 L2915.187,436.754 L2912.795,439.944 C2915.046,440.689 2915.834,441.773 2916.782,443.932 L2918.108,443.932 C2916.439,444.658 2914.576,444.658 2912.795,444.729 L2915.985,446.324 L2913.592,447.122 C2914.611,448.649 2914.611,447.987 2913.592,449.514 C2916.927,447.513 2917.975,449.216 2919.972,448.717 C2919.199,450.704 2918.796,451.226 2916.782,451.907 C2917.569,453.086 2917.58,452.866 2917.58,454.299 L2922.365,452.704 C2921.27,454.457 2921.382,454.728 2923.163,455.894 L2923.162,452.704 L2927.15,452.704 C2926.632,453.741 2927.033,453.502 2925.555,453.502 L2928.745,454.299 C2929.678,447.567 2932.434,435.136 2938.315,431.172 C2936.427,436.064 2926.994,454.175 2931.935,457.489 C2929.882,458.908 2928.81,459.9 2927.948,462.275 C2950.114,446.844 2970.229,422.418 2999.724,422.399 C2996.31,424.732 2991.674,423.939 2987.761,425.299 C2977.468,428.875 2960.83,435.42 2953.802,444.006 C2950.533,448.001 2949.392,454.404 2947.177,459.085 C2940.117,474 2929.703,498.529 2913.592,505.34 C2917.735,499.507 2923.833,495.517 2927.917,489.482 C2937.357,475.532 2943.23,460.258 2951.075,445.527 C2942.979,451.058 2930.62,459.442 2925.543,467.928 C2922.268,473.402 2920.948,480.413 2918.119,486.2 C2916.328,489.864 2912.364,492.268 2910.883,495.906 C2909.524,499.244 2910.402,504.174 2910.402,507.733 L2908.807,507.733 C2908.807,500.576 2908.97,493.241 2907.476,486.2 C2906.16,479.998 2902.497,471.706 2904.022,465.465 C2901.171,463.581 2900.351,460.788 2900.832,457.489 C2897.053,454.903 2892.549,442.819 2892.857,438.349 C2888.102,435.189 2886.198,427.471 2884.146,422.399 C2879.566,411.077 2874.134,400.085 2869.27,388.903 C2867.323,384.428 2863.023,377.892 2864.147,372.953 z M2921.567,470.25 C2918.123,473.704 2913.478,477.463 2911.997,482.212 L2908.807,482.212 L2910.402,493.377 C2915.496,489.444 2923.091,476.945 2921.567,470.25 z M2900.832,447.122 L2899.237,447.122 L2900.035,451.109 L2900.832,447.122 z M2910.402,439.147 L2908.807,439.147 L2908.807,440.742 L2910.402,440.742 L2910.402,439.147 z" fill="#FFFFFF"/>
      <path d="M2830.651,459.084 L2831.448,463.869 L2836.234,460.679 C2837.205,462.369 2837.723,462.948 2839.424,463.87 L2837.031,466.262 L2834.639,463.869 L2834.639,468.655 L2832.246,467.06 L2833.044,473.44 C2803.969,473.44 2774.131,484.967 2747.71,496.469 C2739.729,499.943 2732.193,502.977 2723.784,505.371 C2719.995,506.45 2717.04,508.596 2713.417,506.138 C2720.986,501.357 2731.415,501.913 2739.735,498.561 C2754.26,492.711 2768.696,486.234 2783.598,481.68 C2789.168,479.979 2794.352,476.69 2800.08,476.098 C2804.303,475.662 2808.369,473.315 2812.308,472.11 C2819.141,470.022 2829.632,473.991 2825.866,462.275 L2828.58,462.274 C2827.995,461.755 2828.354,462.039 2827.461,461.477 C2827.627,460.152 2827.856,460.249 2826.664,459.882 L2830.651,459.084 z M2829.056,462.274 L2828.58,462.274 L2829.159,462.789 L2829.854,466.262 C2829.927,465.132 2830.12,463.643 2829.159,462.789 L2829.056,462.274 z" fill="#FFFFFF"/>
      <path d="M2715.012,316.33 C2713.611,327.179 2710.508,338.046 2710.239,349.028 C2709.802,366.852 2713.06,384.59 2711.75,402.461 C2710.696,416.838 2702.477,429.561 2705.442,443.932 C2722.004,436.634 2737.955,420.37 2750.9,408.013 C2756.581,402.589 2762.063,394.645 2769.243,391.296 C2760.885,402.355 2749.745,410.627 2739.735,420.006 C2741.039,421.243 2741.039,421.96 2739.735,423.196 L2741.33,425.589 L2730.962,429.576 C2731.748,430.756 2731.76,430.536 2731.76,431.969 L2734.949,430.374 L2736.545,434.362 C2733.542,434.351 2731.258,434.165 2728.57,432.767 C2727.71,435.244 2726.909,436.342 2724.582,437.552 L2725.379,440.742 C2728.35,435.768 2730.138,437.619 2734.95,437.552 L2733.354,442.337 C2735.08,442.337 2746.348,443.481 2740.532,444.729 C2743.822,446.066 2748.019,446.114 2750.9,443.932 L2752.495,443.932 L2754.887,447.122 L2756.482,447.122 C2757.794,444.851 2759.495,444.204 2762.065,443.932 L2758.077,443.134 C2759.846,441.921 2760.963,441 2762.065,439.147 L2764.458,440.742 L2766.052,437.552 L2759.672,437.552 C2762.41,436.403 2765.494,436.754 2768.445,436.754 L2768.445,433.564 C2770.312,433.259 2773.297,431.112 2773.23,433.564 C2774.891,432.688 2776.157,432.22 2778.015,431.969 L2775.623,433.564 C2785.945,432.617 2800.327,414.208 2803.536,404.854 C2805.147,405.273 2805.931,405.333 2807.523,404.854 C2804.435,413.765 2793.796,422.325 2786.787,428.322 C2768.905,443.625 2750.508,455.89 2730.962,468.92 C2723.326,474.012 2710.832,486.395 2701.454,483.01 C2700.417,487.489 2700.333,491.979 2697.467,495.77 C2696.292,491.07 2699.632,486.868 2698.522,482.212 C2695.117,467.926 2679.407,454.95 2667.958,447.122 C2672.875,457.458 2677.303,466.843 2683.677,476.442 C2689.186,484.737 2696.025,491.934 2698.264,502.15 C2685.119,490.333 2680.929,468.439 2668.756,455.894 C2669.274,448.03 2663.681,443.32 2657.591,439.452 C2645.194,431.58 2628.938,429.077 2615.323,423.675 C2610.579,421.792 2603.421,419.91 2600.968,415.221 L2604.955,415.221 C2604.955,416.654 2604.944,416.434 2604.158,417.614 C2624.555,424.262 2647.562,430.589 2665.566,442.337 C2664.581,439.221 2664.111,436.034 2663.971,432.767 C2666.427,436.212 2665.836,440.996 2668.396,444.316 C2678.227,457.066 2693.103,462.648 2699.062,479.022 C2703.526,468.459 2702.536,455.833 2702.264,444.729 C2702.167,440.788 2703.305,435.59 2701.7,431.897 C2698.842,425.326 2691.624,419.425 2686.437,414.68 C2671.786,401.276 2654.155,388.569 2635.26,381.963 C2626.653,378.953 2618.214,379.75 2609.74,377.738 C2617.618,374.425 2626.76,377.961 2634.463,380.246 C2653.339,385.845 2671.939,398.778 2686.27,411.992 C2691.432,416.751 2698.024,422.133 2700.656,428.779 C2702.682,428.362 2702.798,428.305 2703.049,430.374 C2716.638,402.62 2705.46,372.275 2709.204,343.445 C2710.189,335.863 2710.109,322.32 2715.012,316.33 z" fill="#FFFFFF"/>
      <path d="M2736.545,491.782 C2734.67,494.103 2731.346,494.381 2728.57,495.308 C2720.494,498.005 2709.971,500.485 2701.454,500.555 C2703.582,496.697 2707.127,497.623 2711.024,497.015 C2719.632,495.673 2727.983,492.936 2736.545,491.782 z" fill="#FFFFFF"/>
      <path d="M2838.626,494.441 C2839.243,494.441 2838.754,494.838 2838.361,494.707 L2838.626,494.441 z" fill="#FFFFFF"/>
      <path d="M2768.445,460.679 C2765.139,466.871 2756.967,470.563 2750.9,473.526 C2736.09,480.757 2720.136,489.509 2703.847,492.58 C2706.959,488.713 2715.968,487.458 2720.594,485.412 C2735.741,478.711 2755.559,473.501 2766.85,460.68 L2768.445,460.679 z" fill="#FFFFFF"/>
      <path d="M2801.143,455.097 C2797.848,460.235 2790.185,462.973 2785.221,466.422 C2770.271,476.81 2755.011,487.457 2737.342,492.58 C2740.891,487.395 2753.005,484.11 2758.736,481.256 C2773.063,474.123 2785.694,459.646 2801.143,455.097 z" fill="#FFFFFF"/>
      <path d="M2887.629,477.876 C2891.372,478.21 2895.156,479.435 2898.135,481.8 C2898.636,482.199 2899.089,482.657 2899.529,483.123 C2899.724,483.329 2900.304,483.897 2900.035,483.807 C2885.577,478.973 2879.55,478.413 2887.629,477.876 z" fill="#FFFFFF"/>
      <path d="M2879.299,475.035 L2879.299,476.63 L2877.704,476.63 L2877.704,475.035 L2879.299,475.035 z" fill="#FFFFFF"/>
      <path d="M2873.717,474.237 L2873.717,475.832 L2870.527,475.832 L2870.527,474.237 L2873.717,474.237 z" fill="#FFFFFF"/>
      <path d="M2864.408,472.214 C2867.056,472.115 2868.736,472.38 2869.729,475.035 L2860.159,474.237 L2860.159,472.642 C2862.495,472.463 2861.077,472.588 2864.408,472.214 z" fill="#FFFFFF"/>
      <path d="M2850.103,471.162 C2852.755,471.12 2855.254,471.924 2857.766,472.642 C2854.165,474.023 2849.669,472.361 2845.804,472.642 C2847.167,471.557 2848.414,471.454 2850.103,471.162 z" fill="#FFFFFF"/>
      <path d="M2839.424,471.047 C2837.979,473.045 2836.827,473.084 2835.436,471.047 L2839.424,471.047 z" fill="#FFFFFF"/>
      <path d="M2841.019,471.047 L2844.209,471.845 C2842.97,472.554 2840.157,473.133 2841.019,471.047 z" fill="#FFFFFF"/>
      <path d="M2815.498,449.514 C2816.081,456.646 2819.248,463.216 2820.283,470.25 C2816.712,466.162 2813.347,454.689 2815.498,449.514 z" fill="#FFFFFF"/>
      <path d="M2818.688,413.626 C2819.677,418.83 2822.234,423.367 2822.676,428.779 L2821.081,428.779 L2820.283,421.601 C2811.945,426.456 2812.308,432.014 2812.308,440.742 C2810.871,437.54 2810.742,433.861 2810.713,430.374 C2795.399,437.2 2785.005,454.575 2769.243,460.68 C2778.16,449.716 2792.746,441.821 2803.625,432.767 C2808.154,428.998 2813.846,422.344 2819.486,420.804 C2818.381,418.43 2817.538,416.207 2817.094,413.626 L2818.688,413.626 z" fill="#FFFFFF"/>
      <path d="M2828.259,451.907 L2829.854,455.097 L2828.259,455.097 C2828.62,456.858 2828.774,457.131 2827.461,458.287 C2827.606,456.054 2827.395,453.98 2828.259,451.907 z" fill="#FFFFFF"/>
      <path d="M2834.639,450.312 C2834.12,451.349 2834.521,451.109 2833.044,451.109 L2836.234,451.907 C2835.78,453.046 2835.07,453.707 2833.989,454.228 C2833.633,455.243 2833.787,456.437 2833.841,457.489 C2832.146,455.253 2832.256,453.076 2832.246,450.312 L2834.639,450.312 z M2834.639,452.704 C2834.29,453.358 2834.39,453.098 2834.264,453.453 L2833.841,454.299 L2833.989,454.228 L2834.264,453.453 L2834.639,452.704 z" fill="#FFFFFF"/>
      <path d="M2806.726,451.907 C2805.214,453.646 2804.127,454.354 2801.941,455.097 C2803.453,453.358 2804.54,452.649 2806.726,451.907 z" fill="#FFFFFF"/>
      <path d="M2811.511,448.717 C2810.343,450.286 2809.432,450.593 2807.523,451.109 C2808.868,449.789 2809.713,449.314 2811.511,448.717 z" fill="#FFFFFF"/>
      <path d="M2828.259,450.577 C2828.875,450.577 2828.386,450.975 2827.993,450.844 L2828.259,450.577 z" fill="#FFFFFF"/>
      <path d="M2829.056,444.729 C2830.255,446.056 2830.81,447.039 2831.449,448.717 L2827.461,449.514 L2829.854,448.717 C2828.827,447.236 2828.339,446.428 2829.056,444.729 z" fill="#FFFFFF"/>
      <path d="M2823.473,444.729 L2823.473,449.514 C2822.715,447.692 2822.715,446.552 2823.473,444.729 z" fill="#FFFFFF"/>
      <path d="M2833.043,446.324 L2834.639,448.717 C2832.583,449.495 2832.284,448.03 2833.044,446.324 z" fill="#FFFFFF"/>
      <path d="M2829.151,443.432 C2830.568,443.492 2831.806,444.108 2833.043,444.729 C2830.954,445.31 2828.844,444.208 2826.664,443.932 C2828.054,443.457 2827.236,443.669 2829.151,443.432 z" fill="#FFFFFF"/>
      <path d="M2921.567,441.539 L2921.567,444.729 C2920.264,444.295 2920.407,444.438 2919.972,443.134 C2918.883,443.672 2919.386,443.463 2918.479,443.796 C2919.208,442.64 2920.361,442.064 2921.567,441.539 z" fill="#FFFFFF"/>
      <path d="M2823.473,432.767 L2823.473,443.932 C2822.1,440.659 2822.329,436.331 2821.878,432.767 L2823.473,432.767 z" fill="#FFFFFF"/>
      <path d="M2833.841,434.362 C2833.457,436.247 2833.334,436.37 2831.448,436.754 C2831.27,439.986 2830.838,441.751 2827.461,442.337 C2827.497,439.457 2827.22,436.669 2829.056,434.362 L2829.056,436.754 C2830.72,435.265 2831.645,434.708 2833.841,434.362 z" fill="#FFFFFF"/>
      <path d="M2956.658,435.957 L2955.063,438.349 L2955.063,435.957 L2956.658,435.957 z" fill="#FFFFFF"/>
      <path d="M2719.797,398.473 C2719.589,408.578 2715.194,431.768 2705.442,436.754 C2710.661,424.326 2718.191,412.491 2718.202,398.474 L2719.797,398.473 z" fill="#FFFFFF"/>
      <path d="M2825.068,259.706 L2827.461,263.694 L2832.246,261.301 C2834.517,263.882 2836.866,265.326 2840.221,266.087 C2841.134,269.391 2843.264,272.315 2843.799,275.688 C2844.519,280.224 2843.571,284.823 2845.006,289.214 L2846.601,289.214 C2846.601,287.781 2846.613,288.001 2847.399,286.822 C2848.224,290.705 2843.834,296.604 2843.411,301.177 L2841.019,297.987 C2840.023,300.976 2838.582,303.259 2837.031,303.57 C2838.212,304.844 2838.676,305.251 2840.221,305.962 C2840.155,308.231 2840.489,310.142 2841.019,312.342 C2837.604,316.493 2837.421,321.636 2838.626,326.697 L2833.841,325.102 C2834.162,327.34 2834.162,329.245 2833.841,331.483 C2835.274,331.483 2835.055,331.494 2836.234,332.28 L2835.436,334.672 C2838.016,335.228 2837.302,336.803 2838.626,338.66 L2837.829,341.85 L2837.031,339.458 C2833.073,341.829 2832.749,343.832 2833.044,348.23 L2831.448,345.04 C2830.695,348.565 2831.956,351.851 2832.246,355.408 L2830.651,355.408 C2830.409,353.578 2830.19,352.847 2829.056,351.42 C2829.484,354.196 2829.698,356.66 2829.056,359.395 C2830.479,359.502 2831.379,359.14 2831.445,360.894 C2830.96,360.586 2831.244,360.796 2830.651,360.193 L2829.854,366.573 L2831.448,364.18 C2832.066,365.811 2831.921,366.449 2831.449,368.168 C2833.28,366.386 2833.658,365.136 2833.841,362.585 L2837.031,362.585 C2835.963,365.315 2834.852,367.602 2834.639,370.561 C2830.08,371.983 2829.248,377.211 2825.069,379.333 C2825.018,381.962 2824.107,383.497 2822.676,385.713 L2825.068,383.321 C2825.717,385.146 2825.387,385.72 2824.271,387.308 C2825.497,387.859 2825.338,387.57 2825.069,388.903 C2828.163,391.165 2823.56,394.704 2821.081,395.284 C2822.26,396.07 2822.04,396.081 2823.473,396.081 C2823.715,397.91 2823.935,398.642 2825.069,400.069 C2824.282,398.889 2824.271,399.109 2824.271,397.676 C2827.368,398.34 2828.342,403.515 2829.056,406.449 L2831.448,404.854 L2829.854,408.044 C2832.455,405.496 2832.244,402.769 2832.246,399.271 L2833.841,404.056 L2842.614,395.283 C2840.829,399.525 2836.932,402.445 2837.031,407.246 L2834.639,405.651 L2835.436,408.841 L2832.246,408.044 C2831.634,409.092 2831.699,409.026 2830.651,409.639 L2832.246,412.829 C2831.198,412.216 2831.264,412.282 2830.651,411.234 L2829.056,411.234 C2828.274,412.656 2828.332,412.505 2826.664,412.829 C2828.242,420.379 2830.758,425.903 2829.056,433.564 L2827.461,433.564 L2827.461,427.981 L2824.271,428.779 L2824.271,424.791 L2826.664,425.589 L2825.068,416.816 L2821.878,417.614 C2820.048,413.218 2816.986,408.917 2817.094,404.056 L2812.308,399.271 L2814.701,405.651 C2812.532,404.397 2812.011,403.318 2811.511,400.866 L2809.118,402.461 C2810.993,397.843 2807.69,388.397 2810.713,385.713 C2810.591,387.97 2810.952,389.907 2811.511,392.093 L2813.106,380.131 C2811.875,381.758 2811.202,382.942 2810.713,384.916 L2809.118,384.916 C2809.118,378.232 2808.777,368.74 2813.106,363.383 L2809.916,364.18 L2809.916,367.37 L2808.321,367.37 L2808.321,357.8 C2806.688,361.068 2808.578,363.651 2805.928,364.181 C2806.17,366.319 2806.093,366.914 2804.333,368.168 C2804.4,366.04 2804.122,364.468 2805.131,362.585 C2802.347,360.861 2802.252,359.343 2802.738,356.205 C2804.171,356.205 2803.952,356.217 2805.131,357.003 L2803.536,354.61 C2803.943,352.948 2804.019,352.243 2803.536,350.623 C2805.289,350.437 2805.914,350.633 2807.523,351.42 C2804.17,345.942 2804.66,341.009 2803.536,334.673 L2801.143,336.268 L2801.143,337.863 C2802.565,338.644 2802.414,338.587 2802.738,340.255 C2783.053,323.227 2761.353,298.801 2755.685,272.467 C2761.127,276.26 2764.621,289.559 2767.894,295.594 C2775.424,309.483 2786.506,324.682 2799.548,333.875 C2795.381,327.075 2795.719,308.673 2786.788,305.962 L2784.395,301.177 C2785.94,301.542 2786.156,301.64 2787.585,301.177 C2790.314,302.996 2793.156,304.441 2796.358,305.165 C2794.638,308.198 2794.115,311.276 2793.966,314.735 C2795.346,311.888 2795.654,309.002 2797.953,306.76 C2800.22,310.743 2804.204,310.701 2808.321,311.545 C2809.102,310.123 2809.045,310.273 2810.713,309.95 C2810.195,310.986 2810.596,310.747 2809.118,310.747 C2821.166,314.31 2838.377,307.792 2840.221,293.999 L2843.411,293.999 C2841.509,288.718 2839.282,282.797 2841.019,277.252 L2834.639,278.049 C2835.105,276.315 2835.893,275.462 2837.031,274.062 C2831.76,275.999 2827.579,280.257 2821.878,280.442 C2824.284,278.889 2826.416,277.926 2828.259,275.657 C2821.715,278.422 2815.226,278.191 2808.321,278.049 C2811.606,281.404 2816,280.439 2820.283,279.644 C2814.692,286.566 2806.889,279.703 2801.143,278.049 C2800.862,280.732 2800.81,283.022 2797.953,283.632 C2798.277,281.963 2798.126,282.021 2799.548,281.239 C2798.514,279.968 2798.324,279.63 2797.953,278.049 C2799.001,278.662 2798.936,278.596 2799.548,279.644 C2799.216,277.713 2798.876,277.494 2797.156,276.454 L2797.156,289.214 L2793.168,289.214 C2793.036,291.834 2793.14,293.895 2793.966,296.392 L2791.573,295.594 L2792.37,298.784 C2789.251,296.058 2791.539,290.962 2788.383,287.619 C2789.511,281.561 2789.756,273.975 2792.371,268.479 L2795.561,270.074 C2797.177,265.415 2812.304,262.047 2817.094,261.301 L2817.891,271.669 L2821.878,270.871 C2820.727,266.939 2821.589,263.574 2822.676,259.706 L2825.068,259.706 z M2811.511,371.358 L2811.511,374.548 L2812.308,372.156 L2815.498,372.156 L2811.511,371.358 z M2820.206,272.88 C2817.823,273.156 2818.86,273.022 2817.093,273.264 L2817.093,276.454 L2824.271,274.859 C2822.992,273.047 2822.249,273.069 2820.206,272.88 z M2806.726,266.884 L2806.726,274.062 L2804.333,272.467 L2803.536,274.859 L2807.523,274.859 C2807.743,272.067 2808.991,268.895 2806.726,266.884 z M2831.448,268.479 L2829.854,268.479 L2829.854,274.062 L2830.651,270.871 L2832.246,270.871 L2832.246,274.062 C2833.032,272.202 2833.029,270.507 2833.044,268.479 L2830.651,270.074 L2831.448,268.479 z" fill="#FFFFFF"/>
      <path d="M2822.676,429.576 L2822.676,431.969 C2822.121,430.73 2822.121,430.816 2822.676,429.577 z" fill="#FFFFFF"/>
      <path d="M2864.146,312.342 C2877.165,319.751 2891.609,323.414 2904.82,330.401 C2931.752,344.645 2953.903,363.092 2975.339,384.554 C2988.156,397.384 3003.537,413.605 3007.699,431.969 C3003.32,427.636 3000.963,420.561 2997.862,415.221 C2993.812,408.246 2988.171,401.666 2983.083,395.419 C2963.492,371.36 2938.01,351.893 2911.2,336.906 C2899.873,330.573 2888.255,326.149 2876.109,321.658 C2871.391,319.914 2865.168,317.965 2864.147,312.342 z" fill="#FFFFFF"/>
      <path d="M2879.299,384.118 C2886.691,398.273 2893.227,415.255 2895.25,431.172 C2892.119,428.96 2892.185,423.585 2891.242,420.006 C2888.993,411.47 2885.473,403.452 2882.174,395.283 C2880.838,391.975 2878.145,387.631 2879.299,384.118 z" fill="#FFFFFF"/>
      <path d="M2840.221,427.184 L2841.019,430.374 C2840.105,429.066 2839.908,428.718 2840.221,427.184 z" fill="#FFFFFF"/>
      <path d="M2939.91,425.589 C2939.233,427.828 2938.676,429.088 2936.72,430.374 L2938.315,425.589 L2939.91,425.589 z" fill="#FFFFFF"/>
      <path d="M2961.443,424.791 L2959.848,429.576 C2959.255,427.395 2959.916,426.412 2961.443,424.791 z" fill="#FFFFFF"/>
      <path d="M2703.049,319.52 C2701.512,328.446 2697.906,336.527 2697.498,345.838 C2696.293,373.371 2702.395,399.919 2703.049,427.184 C2698.24,421.654 2699.757,410.262 2698.721,403.259 C2695.592,382.122 2691.358,358.076 2696.667,337.065 C2698.193,331.024 2698.492,324.216 2703.049,319.52 z" fill="#FFFFFF"/>
      <path d="M2758.077,421.601 C2757.339,425.049 2750.893,424.669 2752.495,421.601 L2755.685,423.196 C2756.467,421.774 2756.409,421.925 2758.077,421.601 z" fill="#FFFFFF"/>
      <path d="M2939.91,422.664 C2940.527,422.664 2940.038,423.062 2939.645,422.931 L2939.91,422.664 z" fill="#FFFFFF"/>
      <path d="M2967.026,414.424 C2966.561,417.695 2965.034,420.585 2962.241,422.399 C2963.344,419.383 2964.824,416.768 2967.026,414.424 z" fill="#FFFFFF"/>
      <path d="M2722.189,387.308 C2724.895,399.146 2726.752,410.522 2722.987,422.399 C2721.657,418.074 2723.735,412.582 2723.781,408.044 C2723.844,401.979 2721.91,396.446 2721.392,390.498 C2720.674,392.924 2720.601,395.149 2720.594,397.676 C2718.454,394.736 2719.767,390.826 2719.797,387.308 L2722.189,387.308 z" fill="#FFFFFF"/>
      <path d="M2831.448,418.411 L2832.246,421.601 C2830.926,420.482 2830.85,420.043 2831.449,418.411 z" fill="#FFFFFF"/>
      <path d="M2943.1,417.614 L2941.505,421.601 C2941.009,420.052 2941.158,419.25 2941.505,417.614 L2943.1,417.614 z" fill="#FFFFFF"/>
      <path d="M2944.695,413.626 L2943.1,416.019 L2943.1,413.626 L2944.695,413.626 z" fill="#FFFFFF"/>
      <path d="M2829.854,415.487 L2830.119,415.753 C2829.726,415.884 2829.237,415.487 2829.854,415.487 z" fill="#FFFFFF"/>
      <path d="M2974.203,404.854 C2973.366,407.245 2972.484,408.485 2970.216,409.639 L2972.608,404.854 L2974.203,404.854 z" fill="#FFFFFF"/>
      <path d="M2662.376,321.912 C2657.75,327.07 2650.835,330.162 2645.628,334.811 C2636.031,343.38 2627.108,353.621 2618.752,363.383 C2608.473,375.394 2602.187,390.526 2592.195,402.461 C2591.731,394.826 2601.296,384.483 2605.632,378.536 C2619.286,359.811 2638.901,329.344 2662.376,321.912 z" fill="#FFFFFF"/>
      <path d="M2825.068,394.486 L2825.866,396.878 C2824.458,396.098 2824.307,395.904 2825.069,394.486 z" fill="#FFFFFF"/>
      <path d="M2846.601,392.093 C2845.555,393.257 2844.822,393.814 2843.411,394.486 L2844.209,392.093 L2846.601,392.093 z" fill="#FFFFFF"/>
      <path d="M2772.433,387.308 C2771.571,389 2770.934,389.636 2769.243,390.498 C2770.163,388.705 2770.639,388.229 2772.433,387.308 z" fill="#FFFFFF"/>
      <path d="M2753.292,382.523 C2755.253,384.898 2756.291,387.594 2757.28,390.498 C2754.588,388.857 2753.191,385.675 2753.292,382.523 z" fill="#FFFFFF"/>
      <path d="M2797.953,364.978 C2799.379,366.112 2800.111,366.331 2801.941,366.573 C2801.729,369.13 2801.592,371.301 2799.548,372.953 C2800.972,378.617 2798.653,384.612 2799.548,390.498 C2797.416,390.044 2797.081,388.732 2795.561,387.308 C2799.754,379.913 2795.051,371.25 2797.953,364.978 z" fill="#FFFFFF"/>
      <path d="M2775.623,383.321 C2774.702,385.114 2774.226,385.591 2772.433,386.511 L2775.623,383.321 z" fill="#FFFFFF"/>
      <path d="M2807.523,382.523 C2807.499,383.984 2807.586,383.767 2806.726,384.916 L2807.523,382.523 z" fill="#FFFFFF"/>
      <path d="M2801.941,384.384 C2802.557,384.384 2802.068,384.781 2801.675,384.65 L2801.941,384.384 z" fill="#FFFFFF"/>
      <path d="M2868.134,344.243 C2870.74,347.697 2869.315,352.847 2870.326,357.003 C2872.494,365.918 2877.747,374.087 2878.502,383.321 C2876.313,380.66 2875.535,377.001 2874.403,373.751 C2871.666,365.888 2864.565,352.649 2868.134,344.243 z" fill="#FFFFFF"/>
      <path d="M2743.722,265.289 C2744.702,268.682 2745.786,271.366 2749.305,272.467 L2749.305,274.062 C2747.195,273.721 2746.545,273.407 2745.317,271.669 C2739.828,281.142 2729.366,303.735 2736.545,313.937 C2733.27,319.943 2738.081,329.845 2740.901,335.47 C2745.618,344.876 2750.782,354.121 2757.395,362.358 C2762.754,369.033 2770.839,375.258 2774.028,383.321 C2766.942,379.447 2760.122,368.988 2755.167,362.586 C2745.578,350.199 2733.133,332.481 2731.834,316.33 C2730.877,304.439 2734.468,294.383 2738.937,283.632 C2734.411,289.19 2729.356,298.692 2723.784,302.772 C2725.494,293.328 2734.32,288.529 2739.226,281.012 C2742.356,276.215 2741.634,270.257 2743.722,265.289 z" fill="#FFFFFF"/>
      <path d="M2801.143,353.813 C2801.555,359.496 2798.079,358.939 2794.699,362.633 C2789.511,368.302 2784.083,378.265 2777.218,381.726 C2782.183,371.215 2793.002,363.386 2799.548,353.813 L2801.143,353.813 z" fill="#FFFFFF"/>
      <path d="M2752.495,381.194 C2753.111,381.194 2752.623,381.591 2752.229,381.46 L2752.495,381.194 z" fill="#FFFFFF"/>
      <path d="M2831.448,380.396 C2832.065,380.396 2831.576,380.793 2831.183,380.663 L2831.448,380.396 z" fill="#FFFFFF"/>
      <path d="M2805.131,375.346 C2804.115,377.099 2803.499,378.865 2801.941,380.131 L2801.143,375.346 L2805.131,375.346 z" fill="#FFFFFF"/>
      <path d="M2832.246,378.801 C2832.863,378.801 2832.374,379.198 2831.98,379.068 L2832.246,378.801 z" fill="#FFFFFF"/>
      <path d="M2808.321,374.548 L2808.321,378.536 C2806.431,377.078 2806.784,376.235 2808.321,374.548 z" fill="#FFFFFF"/>
      <path d="M2746.912,372.156 C2749.051,374.021 2749.965,375.864 2750.9,378.536 C2748.511,377.075 2746.907,375.02 2746.912,372.156 z" fill="#FFFFFF"/>
      <path d="M2809.118,368.168 C2809.306,370.387 2809.271,371.535 2807.523,372.953 C2807.806,371.086 2808.141,369.773 2809.118,368.168 z" fill="#FFFFFF"/>
      <path d="M2833.841,371.624 L2834.107,371.89 C2833.714,372.021 2833.225,371.624 2833.841,371.624 z" fill="#FFFFFF"/>
      <path d="M2744.52,367.37 C2746.212,368.539 2746.493,369.33 2746.912,371.358 C2744.667,370.88 2743.913,369.589 2744.52,367.371 z" fill="#FFFFFF"/>
      <path d="M2860.159,359.395 L2862.552,360.99 C2862.171,364.575 2862.892,367.819 2863.349,371.358 C2860.826,368.47 2859.266,363.175 2860.159,359.395 z" fill="#FFFFFF"/>
      <path d="M2740.532,360.193 C2742.271,362.155 2743.514,364.153 2744.52,366.573 C2742.051,365.181 2740.257,363.124 2740.532,360.193 z" fill="#FFFFFF"/>
      <path d="M3010.091,362.585 L3010.091,364.18 L3008.496,364.18 C3008.931,362.877 3008.787,363.02 3010.091,362.585 z" fill="#FFFFFF"/>
      <path d="M2833.841,353.813 C2834.909,356.292 2834.975,359.116 2835.436,361.788 C2834.354,361.75 2833.244,361.795 2832.217,361.383 C2831.959,361.28 2831.748,361.086 2831.514,360.937 C2833.955,359.211 2833.506,356.426 2833.841,353.813 z" fill="#FFFFFF"/>
      <path d="M2729.367,335.47 C2733.814,342.881 2737.406,351.334 2740.532,359.395 C2735.625,356.396 2727.698,341.132 2729.367,335.47 z" fill="#FFFFFF"/>
      <path d="M2831.448,358.066 C2832.065,358.066 2831.576,358.463 2831.183,358.332 L2831.448,358.066 z" fill="#FFFFFF"/>
      <path d="M2837.031,350.623 C2838.412,352.927 2838.57,355.138 2838.626,357.8 C2836.999,355.664 2836.619,353.284 2837.031,350.623 z" fill="#FFFFFF"/>
      <path d="M2831.448,356.471 C2832.065,356.471 2831.576,356.868 2831.183,356.737 L2831.448,356.471 z" fill="#FFFFFF"/>
      <path d="M2841.816,353.015 L2844.209,356.205 C2842.352,355.478 2841.312,355.066 2841.816,353.015 z" fill="#FFFFFF"/>
      <path d="M2856.171,329.887 C2854.746,337.883 2849.2,346.891 2845.006,353.813 C2844.079,348.245 2852.036,333.664 2856.171,329.887 z" fill="#FFFFFF"/>
      <path d="M2833.043,349.028 C2834.044,350.423 2834.331,351.306 2834.639,353.015 C2833.048,351.821 2832.632,350.987 2833.044,349.028 z" fill="#FFFFFF"/>
      <path d="M2835.436,341.85 L2836.234,347.433 C2834.777,345.509 2834.519,344.108 2835.436,341.85 z" fill="#FFFFFF"/>
      <path d="M2795.561,343.445 L2799.462,345.006 C2797.735,347.35 2796.333,345.256 2795.561,343.445 z" fill="#FFFFFF"/>
      <path d="M2799.548,338.66 C2800.41,340.412 2800.877,343.246 2799.548,344.898 L2799.548,338.66 z" fill="#FFFFFF"/>
      <path d="M2782.003,335.47 C2785.573,339.423 2791.767,339.2 2794.763,342.648 C2790.66,342.128 2781.069,341.492 2782.003,335.47 z" fill="#FFFFFF"/>
      <path d="M2786.667,332.712 C2788.682,333.416 2788.463,333.114 2790.084,334.619 C2790.352,334.868 2791.131,335.555 2790.775,335.47 C2782.103,333.409 2781.682,332.853 2786.667,332.712 z" fill="#FFFFFF"/>
      <path d="M2724.582,303.569 C2724.582,314.633 2725.666,324.031 2728.57,334.673 C2721.72,327.835 2721.325,312.522 2722.987,303.57 L2724.582,303.569 z" fill="#FFFFFF"/>
      <path d="M2781.205,329.09 C2780.992,331.8 2780.571,332.85 2778.015,333.875 L2781.205,329.09 z" fill="#FFFFFF"/>
      <path d="M2843.411,329.887 C2842.316,331.919 2841.642,332.43 2839.424,333.078 L2841.816,329.887 L2843.411,329.887 z" fill="#FFFFFF"/>
      <path d="M2840.829,327.879 C2841.974,327.9 2842.646,328.33 2843.411,329.09 C2840.973,329.1 2839.264,329.767 2837.031,330.685 C2838.223,328.813 2838.853,328.574 2840.829,327.879 z" fill="#FFFFFF"/>
      <path d="M2775.623,329.355 C2776.239,329.356 2775.75,329.753 2775.357,329.622 L2775.623,329.355 z" fill="#FFFFFF"/>
      <path d="M2856.171,287.619 C2857.692,298.899 2869.888,320.467 2856.171,329.09 C2857.372,324.603 2859.858,320.194 2860.125,315.532 C2860.689,305.663 2855.869,297.217 2854.576,287.619 L2856.171,287.619 z" fill="#FFFFFF"/>
      <path d="M2766.85,317.127 L2773.23,325.9 C2769.913,324.34 2765.925,321.152 2766.85,317.127 z" fill="#FFFFFF"/>
      <path d="M2847.399,313.937 C2844.986,317.528 2843.463,319.895 2843.411,324.305 C2846.56,321.866 2847.667,319.192 2848.994,315.532 C2850.926,320.533 2846.605,325.159 2841.816,325.9 L2841.816,318.722 L2838.626,321.115 C2839.872,317.973 2842.981,316.617 2845.006,313.937 L2847.399,313.937 z" fill="#FFFFFF"/>
      <path d="M2766.773,310.684 C2771.52,310.901 2774.51,320.404 2774.825,324.305 C2772.07,319.747 2771.018,312.628 2764.458,312.342 C2765.11,311.396 2765.732,311.062 2766.773,310.684 z" fill="#FFFFFF"/>
      <path d="M2723.784,296.392 C2717.48,301.43 2707.354,302.71 2699.859,305.503 C2687.804,309.996 2676.194,317.526 2663.971,321.115 C2668.71,316.311 2676.169,313.677 2682.314,311.102 C2695.26,305.677 2709.781,298.287 2723.784,296.392 z" fill="#FFFFFF"/>
      <path d="M2849.678,308.056 C2849.953,308.095 2850.244,308.071 2850.503,308.172 C2852.125,308.805 2852.406,311.622 2850.421,312.54 C2847.888,313.389 2846.768,308.95 2849.204,308.157 L2849.678,308.056 z M2850.589,308.355 C2849.156,308.355 2849.376,308.366 2848.196,309.152 L2848.196,310.747 L2851.386,311.545 L2850.589,308.355 z" fill="#FFFFFF"/>
      <path d="M2762.016,303.456 C2762.328,304.229 2763.961,302.923 2764.458,303.569 C2764.653,303.824 2764.411,304.211 2764.354,304.528 C2764.126,305.811 2763.725,308.048 2761.976,308.091 C2761.725,308.097 2761.51,307.904 2761.278,307.811 C2763.624,306.157 2761.852,304.823 2759.998,304.435 C2760.368,303.673 2761.296,303.616 2762.016,303.456 z" fill="#FFFFFF"/>
      <path d="M2759.767,304.838 L2760.173,306.872 C2759.67,306.354 2759.384,305.504 2759.767,304.838 z" fill="#FFFFFF"/>
      <path d="M2851.386,292.404 C2850.461,296.29 2849.968,299.82 2852.981,302.772 L2853.779,293.999 C2856,297.397 2854.648,301.721 2852.981,305.165 C2847.922,303.151 2848.724,296.89 2849.792,292.404 L2851.386,292.404 z" fill="#FFFFFF"/>
      <path d="M2790.425,299.726 C2790.246,298.497 2793.283,302.166 2792.37,301.974 C2786.602,300.764 2787.77,300.302 2790.425,299.726 z" fill="#FFFFFF"/>
      <path d="M2759.949,271.385 C2763.568,278.403 2768.209,284.85 2773.369,290.809 C2776.661,294.498 2781.85,297.28 2783.598,301.975 C2777.119,298.791 2768.756,290.628 2766.85,283.632 L2763.66,283.632 C2763.272,279.306 2761.505,275.38 2759.949,271.385 z" fill="#FFFFFF"/>
      <path d="M2750.9,283.632 C2755.418,284.912 2762.651,294.171 2758.729,299.097 C2755.284,303.424 2750.754,294.46 2749.905,292.066 C2749.214,290.114 2749.312,288.064 2749.305,286.024 C2751.973,290.182 2754.144,294.908 2758.077,297.987 C2756.054,292.182 2754.035,288.806 2750.9,283.632 z" fill="#FFFFFF"/>
      <path d="M2788.383,291.607 C2788.052,294.21 2788.025,297.034 2785.99,298.784 C2786.342,296.072 2786.683,293.767 2788.383,291.607 z" fill="#FFFFFF"/>
      <path d="M2820.865,283.69 C2827.464,283.978 2826.798,291.701 2825.866,296.392 C2824.408,294.256 2824.113,292.583 2824.271,290.012 C2822.342,292.336 2821.586,295.022 2821.081,297.987 C2819.56,295.94 2818.199,293.621 2816.296,296.392 L2815.498,293.999 L2813.106,294.797 L2811.511,287.619 C2814.156,286.839 2816.03,284.638 2818.7,283.989 C2819.927,283.732 2819.209,283.854 2820.865,283.69 z" fill="#FFFFFF"/>
      <path d="M2840.221,291.075 C2840.838,291.075 2840.349,291.472 2839.956,291.341 L2840.221,291.075 z" fill="#FFFFFF"/>
      <path d="M2850.589,282.037 L2852.981,282.834 L2851.386,286.024 L2850.589,282.037 z" fill="#FFFFFF"/>
      <path d="M2747.71,276.454 L2750.9,277.252 C2749.268,277.851 2748.83,277.775 2747.71,276.454 z" fill="#FFFFFF"/>
      <path d="M2860.957,246.149 C2860.584,254.693 2858.494,264.999 2856.171,273.264 C2853.307,266.421 2857.01,252.242 2860.957,246.149 z" fill="#FFFFFF"/>
      <path d="M2788.289,124.538 C2791.846,124.543 2793.703,127.417 2794.763,130.509 C2811.229,129.209 2827.734,129.655 2841.816,139.406 C2849.328,144.607 2854.915,155.281 2863.421,158.41 C2869.279,160.564 2877.074,159.501 2883.287,160.153 C2893.559,161.23 2904.398,166.03 2911.393,173.711 C2918.637,181.667 2915.659,190.817 2907.779,196.965 C2896.955,205.412 2880.358,211.742 2866.539,211.856 C2865.799,215.247 2864.284,215.732 2860.957,215.843 C2861.588,201.135 2863.154,175.757 2845.006,169.588 C2849.473,168.138 2853.289,173.109 2856.171,175.968 C2856.34,173.783 2856.412,173.239 2858.564,172.778 C2852.194,163.894 2841.65,168.226 2832.246,168.338 C2805.432,168.657 2779.792,178.588 2753.292,180.753 C2756.189,183.451 2759.621,185.893 2754.09,187.93 C2754.473,189.812 2754.504,190.852 2754.09,192.715 L2756.482,191.918 C2755.254,193.356 2754.411,193.379 2752.495,193.513 C2755.3,194.261 2757.012,193.837 2759.673,192.715 C2758.57,194.563 2757.689,195.078 2755.685,195.905 L2759.672,195.905 C2758.354,197.112 2757.365,197.645 2755.685,198.298 L2757.28,200.69 L2752.495,202.285 L2755.685,203.083 C2755.314,204.664 2755.124,205.002 2754.09,206.273 C2755.296,207.591 2755.829,208.581 2756.482,210.261 C2755.303,211.047 2755.523,211.058 2754.09,211.058 L2755.685,214.248 L2750.102,214.248 L2754.09,215.843 C2754.25,217.552 2754.713,218.404 2755.685,219.831 L2753.292,223.021 L2754.887,223.021 L2755.685,226.211 L2753.292,227.806 C2756.683,233.153 2754.803,244.333 2757.037,250.934 C2759.381,257.859 2765.94,262.503 2768.445,269.277 C2762.564,265.1 2758.125,258.108 2754.887,251.731 C2754.229,255.852 2755.105,260.677 2756.757,264.465 C2754.471,259.9 2752.725,255.129 2751.697,250.136 L2747.71,251.731 C2748.688,250.108 2749.068,249.876 2750.9,249.339 C2750.9,245.308 2748.483,234.565 2750.9,231.793 L2747.71,230.996 L2751.697,227.806 C2749.629,228.211 2748.182,228.211 2746.115,227.806 C2747.975,227.02 2749.669,227.024 2751.697,227.008 C2750.542,225.083 2747.797,223.37 2748.507,226.211 C2739.018,221.638 2743.951,210.415 2743.71,202.286 C2743.602,198.65 2741.706,195.485 2742.127,191.918 C2739.561,192.401 2736.653,192.557 2734.224,193.538 C2724.277,197.557 2732.635,210.541 2733.354,217.438 C2730.743,220.89 2732.469,224.727 2733.354,228.603 C2721.058,231.785 2703.309,232.043 2691.086,228.357 C2681.295,225.404 2677.14,216.425 2681.747,207.074 C2690.299,189.714 2711.762,191.51 2725.157,181.49 C2729.111,178.533 2731.748,169.887 2734.555,165.6 C2740.483,156.541 2748.158,149.054 2757.28,143.223 C2763.937,138.966 2773.148,137.212 2779.268,132.892 C2782.635,130.515 2782.684,125.552 2787.585,124.626 L2788.289,124.538 z M2725.379,221.426 L2722.189,221.426 L2722.189,223.021 L2725.379,223.021 L2725.379,221.426 z M2730.165,219.033 L2728.569,219.033 L2727.772,223.021 C2729.51,221.793 2729.824,221.143 2730.165,219.033 z M2711.024,219.033 L2707.834,219.033 L2707.834,223.021 L2717.404,223.021 C2715.321,222.145 2713.285,222.229 2711.024,222.223 L2711.024,219.033 z M2719.797,215.843 L2718.999,223.021 C2721.748,221.184 2722.623,218.8 2726.177,218.236 L2719.797,215.843 z M2706.239,212.653 C2700.45,214.358 2698.031,216.655 2695.872,222.223 C2698.21,222.021 2700.09,221.545 2702.252,220.628 L2699.062,219.831 C2700.71,218.358 2703.533,217.083 2703.847,215.046 C2705.431,216.264 2705.404,217.004 2705.442,219.033 C2707.63,216.822 2707.497,215.44 2706.239,212.653 z M2693.254,216.663 C2691.005,217.082 2691.982,216.782 2690.289,217.438 L2690.289,219.033 C2691.469,219.82 2691.248,219.831 2692.681,219.831 C2692.681,218.168 2692.571,218.456 2694.276,218.236 L2693.479,219.831 L2695.871,219.831 C2695.647,218.848 2695.397,217.417 2694.344,216.939 C2694.003,216.785 2693.617,216.755 2693.254,216.663 z M2689.491,211.058 L2688.694,216.641 C2690,214.624 2690.605,213.215 2689.491,211.058 z M2721.392,212.653 C2721.914,215.089 2722.992,214.995 2725.379,215.046 L2725.379,213.451 L2721.392,212.653 z M2696.669,206.273 L2695.074,206.273 C2694.117,207.618 2694.252,207.679 2692.681,207.868 L2693.479,213.451 C2695.053,211.881 2696.128,210.902 2698.264,210.261 L2696.669,206.273 z M2720.594,201.488 C2717.002,203.191 2714.147,205.157 2710.227,206.273 L2710.227,203.88 C2708.316,204.944 2707.475,206.04 2706.239,207.868 C2705.864,205.906 2705.689,205.413 2703.847,204.678 L2704.644,208.666 L2702.251,207.868 C2701.931,209.418 2701.931,209.508 2702.252,211.058 L2699.859,211.058 L2699.859,212.653 L2705.442,211.058 L2705.442,207.868 C2706.147,209.543 2706.267,210.053 2706.239,211.856 C2709.956,213.055 2714.61,210.134 2709.429,208.666 C2711.868,208.099 2712.833,208.132 2714.214,210.261 C2722.887,210.052 2724.612,213.545 2726.974,203.881 L2723.784,203.88 C2723.539,205.391 2723.167,206.165 2722.136,207.265 C2722.1,205.233 2721.384,203.326 2720.594,201.488 z M2719.797,203.083 L2720.594,207.868 L2721.166,207.868 C2719.837,208.501 2718.936,207.196 2718.986,205.962 C2719.036,204.72 2719.362,204.133 2719.797,203.083 z M2700.656,204.678 L2699.062,205.475 C2700.243,206.106 2701.292,206.169 2700.656,204.678 z M2877.867,196.527 C2874.671,196.539 2876.052,196.433 2873.717,196.703 L2875.312,198.298 L2872.122,199.095 L2872.919,202.285 C2870.63,201.951 2869.559,202.014 2868.134,203.881 L2873.717,203.083 C2875.093,200.369 2876.402,199.359 2879.299,200.69 L2880.097,198.298 C2878.359,197.719 2878.677,197.948 2879.299,196.703 L2877.867,196.527 z M2726.974,194.31 C2725.158,195.921 2723.592,197.272 2721.392,198.298 L2721.392,195.108 C2716.853,195.29 2722.081,195.118 2715.251,195.139 C2711.636,195.15 2712.602,194.984 2711.125,195.257 C2711.777,196.057 2711.817,196.507 2711.822,197.5 L2718.999,197.5 C2719.531,199.993 2721.467,200.647 2723.784,201.488 C2724.941,198.88 2726.901,197.228 2726.974,194.31 z M2711.024,195.108 L2711.021,195.276 C2706.733,196.069 2708.568,195.504 2705.442,196.703 C2707.508,199.599 2708.962,201.206 2712.619,201.488 C2711.563,199.543 2710.974,197.491 2711.021,195.276 L2711.125,195.257 L2711.024,195.108 z M2880.894,199.095 L2880.894,200.69 L2882.489,200.69 C2882.055,199.387 2882.198,199.53 2880.894,199.095 z M2896.844,173.575 C2897.243,175.444 2902.375,181.994 2904.022,182.348 L2902.427,184.74 L2895.25,183.943 L2895.25,187.133 L2892.06,187.133 C2893.738,188.822 2895.449,189.393 2897.642,190.323 C2899.397,188.564 2899.44,187.815 2898.44,185.538 C2900.846,186.544 2902.28,186.927 2904.82,186.335 L2904.022,183.145 C2906.917,186.496 2904.606,188.436 2900.832,188.728 L2903.225,190.323 C2900.874,191.288 2899.736,192.126 2898.44,194.31 L2893.655,192.715 L2895.25,195.905 C2892.83,195.488 2891.836,195.427 2890.465,197.5 L2888.869,195.108 L2885.679,199.095 C2899.914,203.043 2918.39,179.919 2896.844,173.575 z M2889.667,187.133 L2888.072,187.133 L2886.477,191.918 C2888.504,193.269 2888.485,192.659 2888.072,194.31 C2890.828,193.738 2892.003,193.036 2892.857,190.323 L2889.667,191.918 C2889.934,190.127 2889.978,188.904 2889.667,187.133 z M2875.312,181.55 L2872.122,183.145 C2871.48,186.288 2870.448,187.805 2867.337,188.728 L2866.539,193.513 L2870.527,194.31 L2868.932,190.323 C2870.812,191.203 2871.624,191.883 2872.919,193.513 L2876.907,192.715 C2876.522,190.83 2876.4,190.707 2874.514,190.323 C2876.329,188.088 2878.4,186.936 2880.894,185.538 L2878.502,187.93 L2880.097,191.918 C2882.416,190.577 2883.812,189.795 2886.477,190.323 L2887.274,185.538 C2884.935,185.027 2883.234,185.027 2880.894,185.538 C2879.471,183.78 2877.214,182.849 2875.312,181.55 z M2742.127,184.74 C2737.799,185.602 2734.652,188.055 2732.557,191.918 L2739.735,190.323 L2738.14,187.133 L2741.33,187.93 L2742.127,184.74 z M2730.165,187.93 L2728.569,187.93 L2728.569,190.323 L2730.165,190.323 L2730.165,187.93 z M2734.949,186.335 C2732.62,187.215 2731.842,187.993 2730.962,190.323 C2732.666,189.087 2733.714,188.039 2734.95,186.335 z M2868.932,179.158 C2863.335,179.765 2864.152,182.668 2860.957,186.335 L2864.944,187.93 C2865.222,184.05 2868.621,182.589 2866.539,187.133 C2871.464,186.297 2871.125,182.834 2868.932,179.158 z M2858.564,172.777 L2856.171,176.765 C2857.938,179.554 2858.95,182.484 2860.159,185.538 C2863.112,181.64 2861.714,176.163 2858.564,172.778 z M2877.333,167.873 C2873.257,167.979 2874.995,167.944 2872.122,167.992 C2872.21,170.284 2871.933,172.162 2871.324,174.373 C2872.993,174.049 2872.935,174.2 2873.717,172.778 C2875.848,175.54 2876.593,178.303 2877.704,181.55 L2880.097,180.753 C2878.421,176.018 2880.866,174.452 2884.084,171.183 L2882.489,182.348 C2885.321,181.911 2887.158,180.404 2889.667,179.158 L2888.072,182.348 C2889.12,181.735 2889.054,181.801 2889.667,180.753 L2890.464,185.538 C2893.852,184.349 2894.979,182.499 2896.047,179.158 L2897.642,182.348 C2902.71,178.657 2896.157,177.586 2892.857,178.36 C2897.795,170.977 2889.442,170.832 2884.084,170.385 L2885.679,169.587 C2883.133,168.03 2880.206,168.012 2877.333,167.873 z M2886.477,175.968 L2886.477,177.563 L2884.882,177.563 C2885.317,176.259 2885.173,176.402 2886.477,175.968 z M2890.464,174.372 L2890.464,175.968 L2888.869,175.968 L2888.869,174.372 L2890.464,174.372 z M2878.502,169.587 C2879.784,170.744 2880.148,171.223 2880.894,172.778 L2876.907,172.777 L2878.502,169.587 z M2884.882,183.145 L2888.869,184.74 C2887.443,183.606 2886.711,183.387 2884.882,183.145 z M2867.337,166.397 C2865.053,166.846 2863.251,166.777 2860.957,166.397 C2862.432,170.362 2861.56,174.248 2862.552,178.36 C2865.174,177.65 2867.033,177.134 2868.932,175.17 L2864.944,176.765 C2866.171,173.43 2867.893,172.89 2871.324,172.778 L2871.324,168.79 C2868.144,170.278 2866.538,171.004 2864.146,167.992 C2865.84,167.748 2866.289,167.688 2867.337,166.397 z" fill="#FFFFFF"/>
      <path d="M2749.305,262.099 L2750.102,267.681 C2748.25,266.186 2748.034,264.431 2747.71,262.099 L2749.305,262.099 z" fill="#FFFFFF"/>
      <path d="M2744.52,257.314 C2746.551,258.409 2747.062,259.083 2747.71,261.301 C2746.279,260.382 2745.389,259.996 2743.722,259.706 C2743.722,258.273 2743.733,258.493 2744.52,257.314 z" fill="#FFFFFF"/>
      <path d="M2833.841,251.731 C2826.412,258.58 2820.051,259.157 2810.713,257.059 C2807.575,256.353 2804.617,257.022 2802.738,254.124 C2807.077,255.677 2816.715,258.643 2821.081,257.522 C2825.994,256.26 2828.441,252.027 2833.841,251.731 z" fill="#FFFFFF"/>
      <path d="M2745.317,249.339 C2745.813,250.12 2746.551,250.796 2746.691,251.776 C2746.852,253.069 2747.06,255.851 2745.115,256.04 C2744.103,256.138 2744.009,256.046 2743.502,255.719 L2744.52,255.719 L2745.317,249.339 z" fill="#FFFFFF"/>
      <path d="M2743.722,250.934 C2742.95,252.307 2742.723,253.767 2742.884,255.319 C2740.217,253.492 2740.975,251.66 2743.722,250.934 z" fill="#FFFFFF"/>
      <path d="M2806.441,242.843 C2807.715,242.697 2808.805,243.232 2809.916,243.756 C2807.954,244.464 2806.395,244.129 2804.333,243.756 C2805.501,243.063 2804.814,243.401 2806.441,242.843 z" fill="#FFFFFF"/>
      <path d="M2742.127,236.578 L2743.722,242.959 C2742.105,240.943 2740.77,238.943 2739.735,236.579 L2742.127,236.578 z" fill="#FFFFFF"/>
      <path d="M2854.576,220.628 C2859.153,222.577 2862.384,225.929 2862.552,230.996 C2860.088,227.181 2857.408,224.204 2853.779,221.426 L2854.576,220.628 z" fill="#FFFFFF"/>
      <path d="M2853.779,223.818 L2855.374,226.211 C2853.899,225.44 2853.203,225.302 2853.779,223.818 z" fill="#FFFFFF"/>
      <path d="M2855.374,214.248 L2856.171,218.236 L2861.754,218.236 L2861.754,224.616 C2860.625,222.987 2860.362,221.816 2860.159,219.831 C2850.247,220.122 2839.355,217.694 2829.854,221.426 C2831.033,222.212 2830.813,222.223 2832.246,222.223 C2830.61,222.92 2829.258,222.983 2827.461,223.021 C2832.632,213.685 2846.435,214.672 2855.374,214.248 z M2848.994,215.843 L2845.006,215.843 L2844.209,219.033 C2846.447,218.356 2847.708,217.799 2848.994,215.843 z" fill="#FFFFFF"/>
      <path d="M2790.151,217.219 C2793.505,217.294 2796.569,218.407 2799.548,219.831 C2796.296,220.797 2793.939,219.426 2790.775,221.426 L2798.75,221.426 C2790.556,224.897 2778.794,222.949 2770.04,223.021 C2775.269,220.563 2780.641,217.991 2786.462,217.357 C2787.685,217.224 2788.921,217.265 2790.151,217.219 z M2784.395,219.033 L2780.408,220.628 C2782.044,221.325 2783.396,221.388 2785.193,221.426 C2785.193,219.993 2785.182,220.212 2784.395,219.033 z" fill="#FFFFFF"/>
      <path d="M2776.42,218.236 C2775.252,219.928 2774.461,220.209 2772.433,220.628 L2774.825,218.236 L2776.42,218.236 z" fill="#FFFFFF"/>
      <path d="M2757.28,208.134 L2757.545,208.4 C2757.152,208.531 2756.664,208.134 2757.28,208.134 z" fill="#FFFFFF"/>
      <path d="M2778.813,196.703 C2782.356,199.171 2792.525,198.897 2797.156,199.095 L2797.156,200.69 C2791.422,200.572 2785.227,199.54 2779.61,201.292 C2775.865,202.46 2773.01,205.25 2769.243,206.273 C2769.901,204.299 2773.642,200.588 2770.04,201.488 C2771.088,200.198 2771.537,200.138 2773.23,199.893 C2774.208,196.965 2775.912,196.952 2778.813,196.703 z" fill="#FFFFFF"/>
      <path d="M2851.386,192.715 C2854.672,194.081 2855.835,195.499 2855.374,199.095 L2857.766,199.893 L2856.969,203.083 C2853.575,202.227 2850.819,199.174 2847.368,198.875 C2842.27,198.434 2834.719,203.086 2830.651,200.69 C2836.349,198.025 2844.226,194.231 2850.589,195.108 C2850.589,193.675 2850.6,193.895 2851.386,192.715 z" fill="#FFFFFF"/>
      <path d="M2760.47,190.323 C2759.495,191.705 2758.868,192.038 2757.28,192.715 C2758.26,191.224 2758.77,190.942 2760.47,190.323 z" fill="#FFFFFF"/>
      <path d="M2758.077,188.728 L2757.28,190.323 C2755.976,189.888 2756.12,190.032 2755.685,188.728 L2758.077,188.728 z" fill="#FFFFFF"/>
    </g>
  </g>
</svg>
