<?xml version="1.0" encoding="UTF-8"?>
<!DOCTYPE svg PUBLIC "-//W3C//DTD SVG 1.1//EN" "http://www.w3.org/Graphics/SVG/1.1/DTD/svg11.dtd">
<svg version="1.1" xmlns="http://www.w3.org/2000/svg" xmlns:xlink="http://www.w3.org/1999/xlink" x="0" y="0" width="682.154" height="285.714" viewBox="0, 0, 682.154, 285.714">
  <g id="Layer_1" transform="translate(-388.157, -614.286)">
    <path d="M1026.029,614.286 C1050.485,614.286 1070.311,634.111 1070.311,658.567 L1070.311,855.718 C1070.311,880.174 1050.485,900 1026.029,900 L828.878,900 C804.422,900 784.597,880.174 784.597,855.718 L784.596,763.313 L746.039,801.871 C744.155,803.755 741.1,803.755 739.215,801.871 C737.331,799.987 737.331,796.932 739.215,795.047 L772.331,761.931 L673.871,761.931 L673.871,855.718 C673.871,880.174 654.045,900 629.589,900 L432.438,900 C407.982,900 388.157,880.174 388.157,855.718 L388.157,658.567 C388.157,634.111 407.982,614.286 432.438,614.286 L629.589,614.286 C654.045,614.286 673.871,634.111 673.871,658.567 L673.871,752.282 L771.436,752.282 L737.268,718.114 C735.384,716.23 735.384,713.175 737.268,711.291 C738.457,710.14 739.334,710.017 740.907,709.963 L740.907,709.963 L741.601,709.966 C743.636,710.796 742.852,710.278 744.092,711.291 L784.596,751.796 L784.596,658.567 C784.597,634.111 804.422,614.286 828.878,614.286 L1026.029,614.286 z M629.589,623.935 L432.438,623.935 C413.312,623.935 397.806,639.441 397.806,658.567 L397.806,855.718 C397.806,874.845 413.312,890.35 432.438,890.35 L629.589,890.35 C648.716,890.35 664.221,874.845 664.221,855.718 L664.221,757.11 L664.221,757.107 L664.221,757.103 L664.221,658.567 C664.221,639.441 648.716,623.935 629.589,623.935 z M922.389,633.689 L921.505,633.747 L921.424,633.746 C921.319,633.746 921.214,633.749 921.1,633.756 C920.727,633.78 920.351,633.848 919.952,633.985 C917.998,634.66 917.039,636.07 916.425,637.912 C916.333,638.188 916.255,638.461 916.18,638.755 C916.153,638.861 916.128,638.965 916.1,639.082 C916.086,639.141 916.068,639.219 916.043,639.323 C915.486,641.682 915.262,644.009 915.169,647.266 C915.154,647.786 915.145,648.195 915.127,649.122 C915.103,650.304 915.091,650.83 915.068,651.47 L915.066,651.579 C915.055,653.094 915.043,654.584 915.027,656.268 C914.912,669.045 914.908,670.177 915.037,674.34 C915.199,679.607 915.609,684.862 916.54,693.719 C917.561,704.351 918.203,715.012 918.62,725.684 C910.137,729.937 902.038,734.898 893.886,739.74 C893.849,739.762 893.849,739.762 893.812,739.784 C885.827,744.564 877.847,749.372 869.54,753.58 C865.951,755.215 862.36,756.848 858.779,758.504 C855.246,760.154 852.82,761.378 850.929,762.495 C848.443,763.965 846.811,765.285 845.844,766.881 C844.288,769.446 844.799,772.306 846.99,774.376 C848.643,775.937 851.31,777.188 855.468,778.548 C860.675,780.25 865.819,780.333 872.109,778.069 C879.812,775.296 888.59,769.056 898.928,758.576 C905.211,752.585 911.885,746.982 919.298,742.423 C919.432,745.563 919.569,748.703 919.796,751.839 C920.596,761.649 920.126,766.617 918.931,768.102 C918.473,768.673 917.166,768.743 912.464,767.918 C906.265,766.83 902.318,766.244 900.011,766.076 C898.329,765.954 897.309,765.991 896.25,766.441 C894.465,767.2 893.245,769.124 893.904,771.339 C894.221,772.404 894.768,773.029 895.527,773.632 C896.529,774.428 897.973,775.16 901.346,776.717 C901.623,776.845 904.458,778.145 905.354,778.561 C906.998,779.323 908.388,779.984 909.71,780.638 C912.749,782.162 915.789,783.727 918.545,785.732 C920.976,788.056 921.705,791.339 922.227,794.554 C922.317,795.083 922.355,795.319 922.549,796.546 C922.75,797.799 922.664,797.296 922.797,798.056 C918.428,802.458 914.02,806.821 909.576,811.147 L909.567,811.155 C904.215,816.392 901.837,818.732 898.887,821.685 C898.101,822.474 897.055,823.034 895.639,823.454 C894.654,823.746 894.501,823.775 891.743,824.252 C890.101,824.535 889.164,824.757 888.189,825.185 C886.34,825.998 885.001,827.444 884.709,829.555 C883.911,835.331 884.272,839.67 886.021,842.789 C887.997,846.314 891.487,847.888 895.789,847.627 C901.807,847.262 909.747,843.515 921.964,835.987 C934.27,828.403 954.868,820.84 969.188,818.635 C972.718,818.092 975.714,817.9 978.009,818.066 C979.085,818.144 979.971,818.299 980.645,818.514 C980.976,818.631 981.328,818.739 981.6,818.97 C981.62,819.303 981.521,819.63 981.425,819.945 C980.88,821.631 979.294,824.053 976.597,827.079 C956.733,849.372 953.11,852.529 933.417,864.517 C927.977,867.828 924.84,870.227 923.6,872.245 C922.074,874.733 922.72,877.914 925.733,879.07 C927.039,879.571 928.481,879.564 930.36,879.272 C936.135,878.375 947.028,874.288 957.869,868.867 C962.676,866.464 967.435,863.757 972.401,860.656 C976.712,857.964 979.619,856.019 986.666,851.198 C992.407,847.27 994.947,845.598 997.532,844.122 C1008.129,838.071 1013.507,823.971 1007.387,814.282 C999.161,801.257 990.309,798.504 976.369,802.844 C966.547,805.901 958.983,807.983 948.882,810.507 C948.198,810.677 947.487,810.854 946.713,811.046 C945.502,811.346 941.291,812.386 940.679,812.538 C938.228,813.144 936.257,813.636 934.273,814.138 C929.886,815.259 925.499,816.384 921.134,817.588 C923.7,815.413 926.277,813.248 928.786,811.006 C933.563,806.653 938.465,802.779 952.095,792.348 C952.35,792.154 952.35,792.154 952.604,791.959 C968.615,779.704 975.544,774.033 980.17,768.828 C990.241,757.498 994.004,752.686 996.593,746.783 C1000.206,738.544 998.956,731.079 992.195,724.318 C985.382,717.684 979.201,713.714 971.876,712.171 C970.07,711.79 968.231,711.552 966.355,711.448 C956.67,711.072 947.566,713.78 938.58,717.174 L938.578,716.498 C938.577,715.654 938.578,714.978 938.579,713.455 C938.579,713.16 938.579,713.16 938.579,712.864 C938.644,681.437 938.244,671.129 935.872,662.5 C934.177,656.382 932.828,651.932 931.292,647.587 C931.234,647.42 930.702,645.869 930.498,645.291 C930.083,644.119 929.689,643.077 929.269,642.072 C927.562,637.988 925.869,635.338 923.294,634.118 L922.389,633.689 z M964.766,724.968 L964.766,724.968 L964.766,724.968 C967,725.087 969.631,725.213 971.389,726.813 C973.572,728.801 972.868,732.128 972.284,734.63 C970.27,742.485 963.04,753.849 951.802,766.693 C948.279,770.695 944.751,774.694 941.162,778.638 C940.91,772.683 941.047,775.638 940.749,769.774 C940.575,766.551 940.407,763.742 940.069,758.324 C940.052,758.055 940.052,758.055 940.035,757.787 C939.498,749.135 938.944,740.48 938.763,731.811 C947.01,728.112 955.665,725.173 964.766,724.968 L964.766,724.968 z" fill="#FFFFFF" fill-opacity="0.7"/>
    <path d="M524.674,645.076 C527.335,644.942 529.601,646.991 529.735,649.652 L532.896,712.46 C536.877,710.348 540.943,708.404 545.037,706.524 C559.093,700.183 570.992,696.79 580.437,696.723 L580.437,696.723 C591.615,696.643 599.656,701.314 603.072,710.795 C607.777,723.849 596.782,741.595 574.14,764.18 C567.41,770.893 559.737,777.908 551.298,785.135 C543.283,792.102 534.907,798.629 526.576,805.209 C532.18,803.275 537.832,801.487 543.491,799.724 C562.747,793.824 578.487,790.257 589.696,789.674 L592.258,789.591 C596.955,789.558 601.743,790.033 605.855,792.454 C610.796,795.572 612.247,800.968 610.173,807.28 C605.103,822.707 589.554,836.926 566.801,850.161 C557.276,855.701 547.099,860.693 536.924,865.064 C533.365,866.593 530.057,867.937 527.084,869.085 C526.039,869.489 525.109,869.839 524.305,870.136 C523.815,870.317 523.472,870.441 523.285,870.507 C520.773,871.395 518.016,870.079 517.128,867.566 C516.239,865.054 517.556,862.298 520.068,861.409 C520.1,861.398 520.172,861.372 520.283,861.332 C520.475,861.263 520.703,861.18 520.966,861.083 C521.725,860.803 522.609,860.469 523.608,860.083 C526.472,858.977 529.67,857.678 533.115,856.198 C542.956,851.97 552.794,847.145 561.949,841.819 C582.816,829.682 596.88,816.821 601.006,804.267 C601.788,801.887 601.597,801.177 600.706,800.615 C599.042,799.566 595.42,799.038 590.197,799.31 C579.977,799.842 564.872,803.265 546.318,808.95 C540.379,810.77 534.179,812.794 527.785,814.987 C518.157,818.271 508.623,821.821 499.121,825.451 C498.866,825.593 498.999,825.544 498.727,825.602 L497.868,825.93 C494.495,827.236 491.426,828.448 488.721,829.535 C487.776,829.914 486.945,830.251 486.234,830.541 C485.986,830.642 485.772,830.73 485.591,830.804 C485.484,830.848 485.411,830.879 485.378,830.892 C482.916,831.911 480.094,830.74 479.076,828.278 C478.057,825.816 479.228,822.994 481.69,821.975 C481.733,821.958 481.809,821.926 481.923,821.879 C482.111,821.802 482.333,821.711 482.588,821.607 C483.315,821.31 484.162,820.967 485.123,820.581 C487.865,819.479 490.972,818.252 494.385,816.931 L494.865,816.747 C495.094,816.587 494.917,816.711 495.395,816.375 C496.321,815.722 497.396,814.957 498.609,814.086 C502.079,811.596 505.948,808.764 510.115,805.645 C522.021,796.733 533.924,787.309 545.021,777.806 C553.286,770.728 560.782,763.875 567.325,757.348 C587.162,737.561 596.835,721.949 593.994,714.067 C592.086,708.77 587.867,706.319 580.507,706.372 C572.658,706.428 561.944,709.483 549.006,715.32 C543.698,717.683 538.547,720.371 533.432,723.12 L536.159,777.302 C536.293,779.963 534.244,782.229 531.583,782.363 C528.922,782.497 526.656,780.448 526.522,777.787 L524.038,728.44 C502.351,741.128 482.025,755.977 462.306,771.506 C460.221,773.166 457.186,772.822 455.526,770.737 C453.866,768.653 454.21,765.617 456.294,763.957 C477.697,747.173 499.736,730.947 523.493,717.606 L520.097,650.137 C519.964,647.476 522.012,645.21 524.674,645.076 z" fill="#FFFFFF" fill-opacity="0.7"/>
  </g>
</svg>
